<mxfile host="app.diagrams.net" modified="2023-11-23T10:54:40.306Z" agent="Mozilla/5.0 (Macintosh; Intel Mac OS X 10_15_7) AppleWebKit/537.36 (KHTML, like Gecko) Chrome/119.0.0.0 Safari/537.36" etag="CTd2pwQ3gfmvDnlPmwsp" version="22.1.3" type="github">
  <diagram name="Page-1" id="74e2e168-ea6b-b213-b513-2b3c1d86103e">
    <mxGraphModel dx="1026" dy="616" grid="1" gridSize="10" guides="1" tooltips="1" connect="1" arrows="1" fold="1" page="1" pageScale="1" pageWidth="1100" pageHeight="850" background="none" math="0" shadow="0">
      <root>
        <mxCell id="0" />
        <mxCell id="1" parent="0" />
        <mxCell id="77e6c97f196da883-1" value="注册" style="swimlane;html=1;childLayout=stackLayout;startSize=20;rounded=0;shadow=0;labelBackgroundColor=none;strokeWidth=1;fontFamily=Verdana;fontSize=8;align=center;" parent="1" vertex="1">
          <mxGeometry x="70" y="10" width="550" height="1620" as="geometry" />
        </mxCell>
        <mxCell id="77e6c97f196da883-40" style="edgeStyle=orthogonalEdgeStyle;rounded=1;html=1;labelBackgroundColor=none;startArrow=none;startFill=0;startSize=5;endArrow=classicThin;endFill=1;endSize=5;jettySize=auto;orthogonalLoop=1;strokeWidth=1;fontFamily=Verdana;fontSize=8" parent="77e6c97f196da883-1" edge="1">
          <mxGeometry relative="1" as="geometry">
            <mxPoint x="770" y="690" as="sourcePoint" />
            <mxPoint x="830" y="690" as="targetPoint" />
          </mxGeometry>
        </mxCell>
        <mxCell id="77e6c97f196da883-2" value="用户" style="swimlane;html=1;startSize=20;" parent="77e6c97f196da883-1" vertex="1">
          <mxGeometry y="20" width="230" height="1600" as="geometry" />
        </mxCell>
        <mxCell id="Mrs2PnhfkA3vAVPsogvi-46" value="输入手机号" style="rounded=1;whiteSpace=wrap;html=1;" parent="77e6c97f196da883-2" vertex="1">
          <mxGeometry x="60" y="40" width="115" height="30" as="geometry" />
        </mxCell>
        <mxCell id="Mrs2PnhfkA3vAVPsogvi-47" value="输入用户名" style="rounded=1;whiteSpace=wrap;html=1;" parent="77e6c97f196da883-2" vertex="1">
          <mxGeometry x="60" y="110" width="115" height="30" as="geometry" />
        </mxCell>
        <mxCell id="Mrs2PnhfkA3vAVPsogvi-87" value="输入密码" style="rounded=1;whiteSpace=wrap;html=1;" parent="77e6c97f196da883-2" vertex="1">
          <mxGeometry x="60" y="180" width="115" height="30" as="geometry" />
        </mxCell>
        <mxCell id="Mrs2PnhfkA3vAVPsogvi-88" value="点击发送验证码" style="rounded=1;whiteSpace=wrap;html=1;" parent="77e6c97f196da883-2" vertex="1">
          <mxGeometry x="57.5" y="250" width="120" height="30" as="geometry" />
        </mxCell>
        <mxCell id="Mrs2PnhfkA3vAVPsogvi-94" value="" style="endArrow=classic;html=1;rounded=0;exitX=0.5;exitY=1;exitDx=0;exitDy=0;" parent="77e6c97f196da883-2" source="Mrs2PnhfkA3vAVPsogvi-46" target="Mrs2PnhfkA3vAVPsogvi-47" edge="1">
          <mxGeometry width="50" height="50" relative="1" as="geometry">
            <mxPoint x="240" y="200" as="sourcePoint" />
            <mxPoint x="290" y="150" as="targetPoint" />
          </mxGeometry>
        </mxCell>
        <mxCell id="Mrs2PnhfkA3vAVPsogvi-96" value="" style="endArrow=classic;html=1;rounded=0;exitX=0.5;exitY=1;exitDx=0;exitDy=0;" parent="77e6c97f196da883-2" edge="1">
          <mxGeometry width="50" height="50" relative="1" as="geometry">
            <mxPoint x="117.13999999999999" y="140" as="sourcePoint" />
            <mxPoint x="117.13999999999999" y="180" as="targetPoint" />
          </mxGeometry>
        </mxCell>
        <mxCell id="Mrs2PnhfkA3vAVPsogvi-97" value="" style="endArrow=classic;html=1;rounded=0;exitX=0.5;exitY=1;exitDx=0;exitDy=0;" parent="77e6c97f196da883-2" edge="1">
          <mxGeometry width="50" height="50" relative="1" as="geometry">
            <mxPoint x="117.13999999999999" y="210" as="sourcePoint" />
            <mxPoint x="117.13999999999999" y="250" as="targetPoint" />
          </mxGeometry>
        </mxCell>
        <mxCell id="Mrs2PnhfkA3vAVPsogvi-127" value="发送验证码流程" style="rounded=1;whiteSpace=wrap;html=1;" parent="77e6c97f196da883-2" vertex="1">
          <mxGeometry x="57.5" y="600" width="120" height="60" as="geometry" />
        </mxCell>
        <mxCell id="Mrs2PnhfkA3vAVPsogvi-137" value="" style="edgeStyle=orthogonalEdgeStyle;rounded=0;orthogonalLoop=1;jettySize=auto;html=1;" parent="77e6c97f196da883-2" source="Mrs2PnhfkA3vAVPsogvi-135" target="Mrs2PnhfkA3vAVPsogvi-127" edge="1">
          <mxGeometry relative="1" as="geometry" />
        </mxCell>
        <mxCell id="Mrs2PnhfkA3vAVPsogvi-138" value="否" style="edgeLabel;html=1;align=center;verticalAlign=middle;resizable=0;points=[];" parent="Mrs2PnhfkA3vAVPsogvi-137" vertex="1" connectable="0">
          <mxGeometry x="0.0386" relative="1" as="geometry">
            <mxPoint as="offset" />
          </mxGeometry>
        </mxCell>
        <mxCell id="Mrs2PnhfkA3vAVPsogvi-140" value="" style="edgeStyle=orthogonalEdgeStyle;rounded=0;orthogonalLoop=1;jettySize=auto;html=1;" parent="77e6c97f196da883-2" source="Mrs2PnhfkA3vAVPsogvi-135" target="Mrs2PnhfkA3vAVPsogvi-139" edge="1">
          <mxGeometry relative="1" as="geometry" />
        </mxCell>
        <mxCell id="Mrs2PnhfkA3vAVPsogvi-135" value="是否收到验证码" style="rounded=1;whiteSpace=wrap;html=1;" parent="77e6c97f196da883-2" vertex="1">
          <mxGeometry x="57.5" y="720" width="120" height="60" as="geometry" />
        </mxCell>
        <mxCell id="Mrs2PnhfkA3vAVPsogvi-139" value="输入验证码" style="rounded=1;whiteSpace=wrap;html=1;" parent="77e6c97f196da883-2" vertex="1">
          <mxGeometry x="57.5" y="860" width="120" height="60" as="geometry" />
        </mxCell>
        <mxCell id="Mrs2PnhfkA3vAVPsogvi-160" value="用户登录" style="rounded=1;whiteSpace=wrap;html=1;" parent="77e6c97f196da883-2" vertex="1">
          <mxGeometry x="50" y="1410" width="120" height="60" as="geometry" />
        </mxCell>
        <mxCell id="77e6c97f196da883-4" value="后端" style="swimlane;html=1;startSize=20;" parent="77e6c97f196da883-1" vertex="1">
          <mxGeometry x="230" y="20" width="160" height="1600" as="geometry" />
        </mxCell>
        <mxCell id="Mrs2PnhfkA3vAVPsogvi-101" value="" style="edgeStyle=orthogonalEdgeStyle;rounded=0;orthogonalLoop=1;jettySize=auto;html=1;" parent="77e6c97f196da883-4" source="Mrs2PnhfkA3vAVPsogvi-98" target="Mrs2PnhfkA3vAVPsogvi-100" edge="1">
          <mxGeometry relative="1" as="geometry" />
        </mxCell>
        <mxCell id="Mrs2PnhfkA3vAVPsogvi-106" value="是" style="edgeLabel;html=1;align=center;verticalAlign=middle;resizable=0;points=[];" parent="Mrs2PnhfkA3vAVPsogvi-101" vertex="1" connectable="0">
          <mxGeometry x="-0.0714" relative="1" as="geometry">
            <mxPoint as="offset" />
          </mxGeometry>
        </mxCell>
        <mxCell id="Mrs2PnhfkA3vAVPsogvi-98" value="&lt;font style=&quot;font-size: 10px;&quot;&gt;手机号格式是否正确&lt;/font&gt;" style="rhombus;whiteSpace=wrap;html=1;" parent="77e6c97f196da883-4" vertex="1">
          <mxGeometry x="30" y="235" width="100" height="60" as="geometry" />
        </mxCell>
        <mxCell id="Mrs2PnhfkA3vAVPsogvi-103" value="" style="edgeStyle=orthogonalEdgeStyle;rounded=0;orthogonalLoop=1;jettySize=auto;html=1;" parent="77e6c97f196da883-4" source="Mrs2PnhfkA3vAVPsogvi-100" target="Mrs2PnhfkA3vAVPsogvi-102" edge="1">
          <mxGeometry relative="1" as="geometry" />
        </mxCell>
        <mxCell id="Mrs2PnhfkA3vAVPsogvi-107" value="是" style="edgeLabel;html=1;align=center;verticalAlign=middle;resizable=0;points=[];" parent="Mrs2PnhfkA3vAVPsogvi-103" vertex="1" connectable="0">
          <mxGeometry x="0.0357" relative="1" as="geometry">
            <mxPoint as="offset" />
          </mxGeometry>
        </mxCell>
        <mxCell id="Mrs2PnhfkA3vAVPsogvi-100" value="&lt;font style=&quot;font-size: 10px;&quot;&gt;手机号是否可注册&lt;/font&gt;" style="rhombus;whiteSpace=wrap;html=1;" parent="77e6c97f196da883-4" vertex="1">
          <mxGeometry x="30" y="375" width="100" height="60" as="geometry" />
        </mxCell>
        <mxCell id="Mrs2PnhfkA3vAVPsogvi-102" value="&lt;font style=&quot;font-size: 10px;&quot;&gt;用户名是否可注册&lt;/font&gt;" style="rhombus;whiteSpace=wrap;html=1;" parent="77e6c97f196da883-4" vertex="1">
          <mxGeometry x="30" y="515" width="100" height="60" as="geometry" />
        </mxCell>
        <mxCell id="Mrs2PnhfkA3vAVPsogvi-155" value="" style="edgeStyle=orthogonalEdgeStyle;rounded=0;orthogonalLoop=1;jettySize=auto;html=1;" parent="77e6c97f196da883-4" source="Mrs2PnhfkA3vAVPsogvi-104" target="Mrs2PnhfkA3vAVPsogvi-154" edge="1">
          <mxGeometry relative="1" as="geometry" />
        </mxCell>
        <mxCell id="Mrs2PnhfkA3vAVPsogvi-104" value="&lt;font style=&quot;font-size: 10px;&quot;&gt;密码是否符合规则&lt;/font&gt;" style="rhombus;whiteSpace=wrap;html=1;" parent="77e6c97f196da883-4" vertex="1">
          <mxGeometry x="30" y="990" width="100" height="60" as="geometry" />
        </mxCell>
        <mxCell id="Mrs2PnhfkA3vAVPsogvi-133" value="发送验证码到手机" style="rounded=1;whiteSpace=wrap;html=1;" parent="77e6c97f196da883-4" vertex="1">
          <mxGeometry x="20" y="600" width="120" height="60" as="geometry" />
        </mxCell>
        <mxCell id="Mrs2PnhfkA3vAVPsogvi-146" value="" style="edgeStyle=orthogonalEdgeStyle;rounded=0;orthogonalLoop=1;jettySize=auto;html=1;" parent="77e6c97f196da883-4" source="Mrs2PnhfkA3vAVPsogvi-144" target="Mrs2PnhfkA3vAVPsogvi-104" edge="1">
          <mxGeometry relative="1" as="geometry" />
        </mxCell>
        <mxCell id="Mrs2PnhfkA3vAVPsogvi-147" value="是" style="edgeLabel;html=1;align=center;verticalAlign=middle;resizable=0;points=[];" parent="Mrs2PnhfkA3vAVPsogvi-146" vertex="1" connectable="0">
          <mxGeometry x="0.0045" relative="1" as="geometry">
            <mxPoint as="offset" />
          </mxGeometry>
        </mxCell>
        <mxCell id="Mrs2PnhfkA3vAVPsogvi-144" value="&lt;font style=&quot;font-size: 10px;&quot;&gt;验证码是否可用&lt;/font&gt;" style="rhombus;whiteSpace=wrap;html=1;" parent="77e6c97f196da883-4" vertex="1">
          <mxGeometry x="30" y="860" width="100" height="60" as="geometry" />
        </mxCell>
        <mxCell id="Mrs2PnhfkA3vAVPsogvi-157" value="" style="edgeStyle=orthogonalEdgeStyle;rounded=0;orthogonalLoop=1;jettySize=auto;html=1;" parent="77e6c97f196da883-4" source="Mrs2PnhfkA3vAVPsogvi-154" target="Mrs2PnhfkA3vAVPsogvi-156" edge="1">
          <mxGeometry relative="1" as="geometry" />
        </mxCell>
        <mxCell id="Mrs2PnhfkA3vAVPsogvi-154" value="保存用户信息，敏感信息脱敏" style="rounded=1;whiteSpace=wrap;html=1;" parent="77e6c97f196da883-4" vertex="1">
          <mxGeometry x="20" y="1130" width="120" height="60" as="geometry" />
        </mxCell>
        <mxCell id="Mrs2PnhfkA3vAVPsogvi-159" value="" style="edgeStyle=orthogonalEdgeStyle;rounded=0;orthogonalLoop=1;jettySize=auto;html=1;" parent="77e6c97f196da883-4" source="Mrs2PnhfkA3vAVPsogvi-156" target="Mrs2PnhfkA3vAVPsogvi-158" edge="1">
          <mxGeometry relative="1" as="geometry" />
        </mxCell>
        <mxCell id="Mrs2PnhfkA3vAVPsogvi-156" value="发送用户注册mq消息" style="rounded=1;whiteSpace=wrap;html=1;" parent="77e6c97f196da883-4" vertex="1">
          <mxGeometry x="20" y="1270" width="120" height="60" as="geometry" />
        </mxCell>
        <mxCell id="Mrs2PnhfkA3vAVPsogvi-158" value="结束" style="rounded=1;whiteSpace=wrap;html=1;" parent="77e6c97f196da883-4" vertex="1">
          <mxGeometry x="20" y="1410" width="120" height="60" as="geometry" />
        </mxCell>
        <mxCell id="77e6c97f196da883-5" value="前端" style="swimlane;html=1;startSize=20;" parent="77e6c97f196da883-1" vertex="1">
          <mxGeometry x="390" y="20" width="160" height="1600" as="geometry" />
        </mxCell>
        <mxCell id="Mrs2PnhfkA3vAVPsogvi-114" value="返回提示信息" style="rounded=1;whiteSpace=wrap;html=1;" parent="77e6c97f196da883-5" vertex="1">
          <mxGeometry x="40" y="235" width="120" height="60" as="geometry" />
        </mxCell>
        <mxCell id="Mrs2PnhfkA3vAVPsogvi-117" value="返回提示信息" style="rounded=1;whiteSpace=wrap;html=1;" parent="77e6c97f196da883-5" vertex="1">
          <mxGeometry x="40" y="375" width="120" height="60" as="geometry" />
        </mxCell>
        <mxCell id="Mrs2PnhfkA3vAVPsogvi-119" value="返回提示信息" style="rounded=1;whiteSpace=wrap;html=1;" parent="77e6c97f196da883-5" vertex="1">
          <mxGeometry x="40" y="515" width="120" height="60" as="geometry" />
        </mxCell>
        <mxCell id="Mrs2PnhfkA3vAVPsogvi-148" value="提示重发验证码" style="rounded=1;whiteSpace=wrap;html=1;" parent="77e6c97f196da883-5" vertex="1">
          <mxGeometry x="40" y="860" width="120" height="60" as="geometry" />
        </mxCell>
        <mxCell id="Mrs2PnhfkA3vAVPsogvi-150" value="提示密码不合要求" style="rounded=1;whiteSpace=wrap;html=1;" parent="77e6c97f196da883-5" vertex="1">
          <mxGeometry x="40" y="990" width="120" height="60" as="geometry" />
        </mxCell>
        <mxCell id="Mrs2PnhfkA3vAVPsogvi-109" value="" style="edgeStyle=orthogonalEdgeStyle;rounded=0;orthogonalLoop=1;jettySize=auto;html=1;" parent="77e6c97f196da883-1" source="Mrs2PnhfkA3vAVPsogvi-88" target="Mrs2PnhfkA3vAVPsogvi-98" edge="1">
          <mxGeometry relative="1" as="geometry" />
        </mxCell>
        <mxCell id="Mrs2PnhfkA3vAVPsogvi-115" value="" style="edgeStyle=orthogonalEdgeStyle;rounded=0;orthogonalLoop=1;jettySize=auto;html=1;" parent="77e6c97f196da883-1" source="Mrs2PnhfkA3vAVPsogvi-98" target="Mrs2PnhfkA3vAVPsogvi-114" edge="1">
          <mxGeometry relative="1" as="geometry" />
        </mxCell>
        <mxCell id="Mrs2PnhfkA3vAVPsogvi-122" value="否" style="edgeLabel;html=1;align=center;verticalAlign=middle;resizable=0;points=[];" parent="Mrs2PnhfkA3vAVPsogvi-115" vertex="1" connectable="0">
          <mxGeometry x="-0.0245" relative="1" as="geometry">
            <mxPoint as="offset" />
          </mxGeometry>
        </mxCell>
        <mxCell id="Mrs2PnhfkA3vAVPsogvi-118" value="" style="edgeStyle=orthogonalEdgeStyle;rounded=0;orthogonalLoop=1;jettySize=auto;html=1;" parent="77e6c97f196da883-1" source="Mrs2PnhfkA3vAVPsogvi-100" target="Mrs2PnhfkA3vAVPsogvi-117" edge="1">
          <mxGeometry relative="1" as="geometry" />
        </mxCell>
        <mxCell id="Mrs2PnhfkA3vAVPsogvi-121" value="否" style="edgeLabel;html=1;align=center;verticalAlign=middle;resizable=0;points=[];" parent="Mrs2PnhfkA3vAVPsogvi-118" vertex="1" connectable="0">
          <mxGeometry x="-0.0245" relative="1" as="geometry">
            <mxPoint as="offset" />
          </mxGeometry>
        </mxCell>
        <mxCell id="Mrs2PnhfkA3vAVPsogvi-120" value="" style="edgeStyle=orthogonalEdgeStyle;rounded=0;orthogonalLoop=1;jettySize=auto;html=1;" parent="77e6c97f196da883-1" source="Mrs2PnhfkA3vAVPsogvi-102" target="Mrs2PnhfkA3vAVPsogvi-119" edge="1">
          <mxGeometry relative="1" as="geometry" />
        </mxCell>
        <mxCell id="Mrs2PnhfkA3vAVPsogvi-123" value="否" style="edgeLabel;html=1;align=center;verticalAlign=middle;resizable=0;points=[];" parent="Mrs2PnhfkA3vAVPsogvi-120" vertex="1" connectable="0">
          <mxGeometry x="-0.0041" y="-1" relative="1" as="geometry">
            <mxPoint as="offset" />
          </mxGeometry>
        </mxCell>
        <mxCell id="Mrs2PnhfkA3vAVPsogvi-128" value="" style="edgeStyle=orthogonalEdgeStyle;rounded=0;orthogonalLoop=1;jettySize=auto;html=1;" parent="77e6c97f196da883-1" source="Mrs2PnhfkA3vAVPsogvi-102" target="Mrs2PnhfkA3vAVPsogvi-127" edge="1">
          <mxGeometry relative="1" as="geometry" />
        </mxCell>
        <mxCell id="Mrs2PnhfkA3vAVPsogvi-134" value="" style="edgeStyle=orthogonalEdgeStyle;rounded=0;orthogonalLoop=1;jettySize=auto;html=1;" parent="77e6c97f196da883-1" source="Mrs2PnhfkA3vAVPsogvi-127" target="Mrs2PnhfkA3vAVPsogvi-133" edge="1">
          <mxGeometry relative="1" as="geometry" />
        </mxCell>
        <mxCell id="Mrs2PnhfkA3vAVPsogvi-136" value="" style="endArrow=classic;html=1;rounded=0;exitX=0.5;exitY=1;exitDx=0;exitDy=0;entryX=1;entryY=0.5;entryDx=0;entryDy=0;" parent="77e6c97f196da883-1" source="Mrs2PnhfkA3vAVPsogvi-133" target="Mrs2PnhfkA3vAVPsogvi-135" edge="1">
          <mxGeometry width="50" height="50" relative="1" as="geometry">
            <mxPoint x="250" y="700" as="sourcePoint" />
            <mxPoint x="300" y="650" as="targetPoint" />
            <Array as="points">
              <mxPoint x="310" y="770" />
            </Array>
          </mxGeometry>
        </mxCell>
        <mxCell id="Mrs2PnhfkA3vAVPsogvi-145" value="" style="edgeStyle=orthogonalEdgeStyle;rounded=0;orthogonalLoop=1;jettySize=auto;html=1;" parent="77e6c97f196da883-1" source="Mrs2PnhfkA3vAVPsogvi-139" target="Mrs2PnhfkA3vAVPsogvi-144" edge="1">
          <mxGeometry relative="1" as="geometry" />
        </mxCell>
        <mxCell id="Mrs2PnhfkA3vAVPsogvi-149" value="" style="edgeStyle=orthogonalEdgeStyle;rounded=0;orthogonalLoop=1;jettySize=auto;html=1;" parent="77e6c97f196da883-1" source="Mrs2PnhfkA3vAVPsogvi-144" target="Mrs2PnhfkA3vAVPsogvi-148" edge="1">
          <mxGeometry relative="1" as="geometry" />
        </mxCell>
        <mxCell id="Mrs2PnhfkA3vAVPsogvi-152" value="否" style="edgeLabel;html=1;align=center;verticalAlign=middle;resizable=0;points=[];" parent="Mrs2PnhfkA3vAVPsogvi-149" vertex="1" connectable="0">
          <mxGeometry x="-0.0226" y="1" relative="1" as="geometry">
            <mxPoint x="1" as="offset" />
          </mxGeometry>
        </mxCell>
        <mxCell id="Mrs2PnhfkA3vAVPsogvi-151" value="" style="edgeStyle=orthogonalEdgeStyle;rounded=0;orthogonalLoop=1;jettySize=auto;html=1;" parent="77e6c97f196da883-1" source="Mrs2PnhfkA3vAVPsogvi-104" target="Mrs2PnhfkA3vAVPsogvi-150" edge="1">
          <mxGeometry relative="1" as="geometry" />
        </mxCell>
        <mxCell id="Mrs2PnhfkA3vAVPsogvi-153" value="否" style="edgeLabel;html=1;align=center;verticalAlign=middle;resizable=0;points=[];" parent="Mrs2PnhfkA3vAVPsogvi-151" vertex="1" connectable="0">
          <mxGeometry x="0.0376" relative="1" as="geometry">
            <mxPoint x="-1" as="offset" />
          </mxGeometry>
        </mxCell>
        <mxCell id="Mrs2PnhfkA3vAVPsogvi-161" value="" style="edgeStyle=orthogonalEdgeStyle;rounded=0;orthogonalLoop=1;jettySize=auto;html=1;" parent="77e6c97f196da883-1" source="Mrs2PnhfkA3vAVPsogvi-158" target="Mrs2PnhfkA3vAVPsogvi-160" edge="1">
          <mxGeometry relative="1" as="geometry" />
        </mxCell>
        <mxCell id="-wVJVxd8WleeXn3yaGTg-1" value="登录" style="swimlane;html=1;childLayout=stackLayout;startSize=20;rounded=0;shadow=0;labelBackgroundColor=none;strokeWidth=1;fontFamily=Verdana;fontSize=8;align=center;" vertex="1" parent="1">
          <mxGeometry x="650" y="10" width="550" height="1620" as="geometry" />
        </mxCell>
        <mxCell id="-wVJVxd8WleeXn3yaGTg-2" style="edgeStyle=orthogonalEdgeStyle;rounded=1;html=1;labelBackgroundColor=none;startArrow=none;startFill=0;startSize=5;endArrow=classicThin;endFill=1;endSize=5;jettySize=auto;orthogonalLoop=1;strokeWidth=1;fontFamily=Verdana;fontSize=8" edge="1" parent="-wVJVxd8WleeXn3yaGTg-1">
          <mxGeometry relative="1" as="geometry">
            <mxPoint x="770" y="690" as="sourcePoint" />
            <mxPoint x="830" y="690" as="targetPoint" />
          </mxGeometry>
        </mxCell>
        <mxCell id="-wVJVxd8WleeXn3yaGTg-3" value="用户" style="swimlane;html=1;startSize=20;" vertex="1" parent="-wVJVxd8WleeXn3yaGTg-1">
          <mxGeometry y="20" width="230" height="1600" as="geometry" />
        </mxCell>
        <mxCell id="-wVJVxd8WleeXn3yaGTg-4" value="输入用户名" style="rounded=1;whiteSpace=wrap;html=1;" vertex="1" parent="-wVJVxd8WleeXn3yaGTg-3">
          <mxGeometry x="60" y="40" width="115" height="30" as="geometry" />
        </mxCell>
        <mxCell id="-wVJVxd8WleeXn3yaGTg-60" value="" style="edgeStyle=orthogonalEdgeStyle;rounded=0;orthogonalLoop=1;jettySize=auto;html=1;" edge="1" parent="-wVJVxd8WleeXn3yaGTg-3" source="-wVJVxd8WleeXn3yaGTg-5" target="-wVJVxd8WleeXn3yaGTg-59">
          <mxGeometry relative="1" as="geometry" />
        </mxCell>
        <mxCell id="-wVJVxd8WleeXn3yaGTg-5" value="输入密码" style="rounded=1;whiteSpace=wrap;html=1;" vertex="1" parent="-wVJVxd8WleeXn3yaGTg-3">
          <mxGeometry x="60" y="110" width="115" height="30" as="geometry" />
        </mxCell>
        <mxCell id="-wVJVxd8WleeXn3yaGTg-8" value="" style="endArrow=classic;html=1;rounded=0;exitX=0.5;exitY=1;exitDx=0;exitDy=0;" edge="1" parent="-wVJVxd8WleeXn3yaGTg-3" source="-wVJVxd8WleeXn3yaGTg-4" target="-wVJVxd8WleeXn3yaGTg-5">
          <mxGeometry width="50" height="50" relative="1" as="geometry">
            <mxPoint x="240" y="200" as="sourcePoint" />
            <mxPoint x="290" y="150" as="targetPoint" />
          </mxGeometry>
        </mxCell>
        <mxCell id="-wVJVxd8WleeXn3yaGTg-11" value="发送验证码流程" style="rounded=1;whiteSpace=wrap;html=1;" vertex="1" parent="-wVJVxd8WleeXn3yaGTg-3">
          <mxGeometry x="57.5" y="600" width="120" height="60" as="geometry" />
        </mxCell>
        <mxCell id="-wVJVxd8WleeXn3yaGTg-12" value="" style="edgeStyle=orthogonalEdgeStyle;rounded=0;orthogonalLoop=1;jettySize=auto;html=1;" edge="1" parent="-wVJVxd8WleeXn3yaGTg-3" source="-wVJVxd8WleeXn3yaGTg-15" target="-wVJVxd8WleeXn3yaGTg-11">
          <mxGeometry relative="1" as="geometry" />
        </mxCell>
        <mxCell id="-wVJVxd8WleeXn3yaGTg-13" value="否" style="edgeLabel;html=1;align=center;verticalAlign=middle;resizable=0;points=[];" vertex="1" connectable="0" parent="-wVJVxd8WleeXn3yaGTg-12">
          <mxGeometry x="0.0386" relative="1" as="geometry">
            <mxPoint as="offset" />
          </mxGeometry>
        </mxCell>
        <mxCell id="-wVJVxd8WleeXn3yaGTg-14" value="" style="edgeStyle=orthogonalEdgeStyle;rounded=0;orthogonalLoop=1;jettySize=auto;html=1;" edge="1" parent="-wVJVxd8WleeXn3yaGTg-3" source="-wVJVxd8WleeXn3yaGTg-15" target="-wVJVxd8WleeXn3yaGTg-16">
          <mxGeometry relative="1" as="geometry" />
        </mxCell>
        <mxCell id="-wVJVxd8WleeXn3yaGTg-15" value="是否收到验证码" style="rounded=1;whiteSpace=wrap;html=1;" vertex="1" parent="-wVJVxd8WleeXn3yaGTg-3">
          <mxGeometry x="57.5" y="720" width="120" height="60" as="geometry" />
        </mxCell>
        <mxCell id="-wVJVxd8WleeXn3yaGTg-16" value="输入验证码" style="rounded=1;whiteSpace=wrap;html=1;" vertex="1" parent="-wVJVxd8WleeXn3yaGTg-3">
          <mxGeometry x="57.5" y="860" width="120" height="60" as="geometry" />
        </mxCell>
        <mxCell id="-wVJVxd8WleeXn3yaGTg-17" value="用户登录" style="rounded=1;whiteSpace=wrap;html=1;" vertex="1" parent="-wVJVxd8WleeXn3yaGTg-3">
          <mxGeometry x="50" y="1410" width="120" height="60" as="geometry" />
        </mxCell>
        <mxCell id="-wVJVxd8WleeXn3yaGTg-59" value="点击登录" style="whiteSpace=wrap;html=1;rounded=1;" vertex="1" parent="-wVJVxd8WleeXn3yaGTg-3">
          <mxGeometry x="57.5" y="205" width="120" height="60" as="geometry" />
        </mxCell>
        <mxCell id="-wVJVxd8WleeXn3yaGTg-18" value="后端" style="swimlane;html=1;startSize=20;" vertex="1" parent="-wVJVxd8WleeXn3yaGTg-1">
          <mxGeometry x="230" y="20" width="160" height="1600" as="geometry" />
        </mxCell>
        <mxCell id="-wVJVxd8WleeXn3yaGTg-19" value="" style="edgeStyle=orthogonalEdgeStyle;rounded=0;orthogonalLoop=1;jettySize=auto;html=1;" edge="1" parent="-wVJVxd8WleeXn3yaGTg-18" source="-wVJVxd8WleeXn3yaGTg-21" target="-wVJVxd8WleeXn3yaGTg-24">
          <mxGeometry relative="1" as="geometry" />
        </mxCell>
        <mxCell id="-wVJVxd8WleeXn3yaGTg-20" value="是" style="edgeLabel;html=1;align=center;verticalAlign=middle;resizable=0;points=[];" vertex="1" connectable="0" parent="-wVJVxd8WleeXn3yaGTg-19">
          <mxGeometry x="-0.0714" relative="1" as="geometry">
            <mxPoint as="offset" />
          </mxGeometry>
        </mxCell>
        <mxCell id="-wVJVxd8WleeXn3yaGTg-21" value="&lt;font style=&quot;font-size: 10px;&quot;&gt;手机号格式是否正确&lt;/font&gt;" style="rhombus;whiteSpace=wrap;html=1;" vertex="1" parent="-wVJVxd8WleeXn3yaGTg-18">
          <mxGeometry x="30" y="205" width="100" height="60" as="geometry" />
        </mxCell>
        <mxCell id="-wVJVxd8WleeXn3yaGTg-22" value="" style="edgeStyle=orthogonalEdgeStyle;rounded=0;orthogonalLoop=1;jettySize=auto;html=1;" edge="1" parent="-wVJVxd8WleeXn3yaGTg-18" source="-wVJVxd8WleeXn3yaGTg-24" target="-wVJVxd8WleeXn3yaGTg-25">
          <mxGeometry relative="1" as="geometry" />
        </mxCell>
        <mxCell id="-wVJVxd8WleeXn3yaGTg-23" value="是" style="edgeLabel;html=1;align=center;verticalAlign=middle;resizable=0;points=[];" vertex="1" connectable="0" parent="-wVJVxd8WleeXn3yaGTg-22">
          <mxGeometry x="0.0357" relative="1" as="geometry">
            <mxPoint as="offset" />
          </mxGeometry>
        </mxCell>
        <mxCell id="-wVJVxd8WleeXn3yaGTg-24" value="&lt;font style=&quot;font-size: 10px;&quot;&gt;手机号是否注册&lt;/font&gt;" style="rhombus;whiteSpace=wrap;html=1;" vertex="1" parent="-wVJVxd8WleeXn3yaGTg-18">
          <mxGeometry x="30" y="375" width="100" height="60" as="geometry" />
        </mxCell>
        <mxCell id="-wVJVxd8WleeXn3yaGTg-25" value="&lt;font style=&quot;font-size: 10px;&quot;&gt;用户名是否可注册&lt;/font&gt;" style="rhombus;whiteSpace=wrap;html=1;" vertex="1" parent="-wVJVxd8WleeXn3yaGTg-18">
          <mxGeometry x="30" y="515" width="100" height="60" as="geometry" />
        </mxCell>
        <mxCell id="-wVJVxd8WleeXn3yaGTg-26" value="" style="edgeStyle=orthogonalEdgeStyle;rounded=0;orthogonalLoop=1;jettySize=auto;html=1;" edge="1" parent="-wVJVxd8WleeXn3yaGTg-18" source="-wVJVxd8WleeXn3yaGTg-27" target="-wVJVxd8WleeXn3yaGTg-33">
          <mxGeometry relative="1" as="geometry" />
        </mxCell>
        <mxCell id="-wVJVxd8WleeXn3yaGTg-27" value="&lt;font style=&quot;font-size: 10px;&quot;&gt;密码是否符合规则&lt;/font&gt;" style="rhombus;whiteSpace=wrap;html=1;" vertex="1" parent="-wVJVxd8WleeXn3yaGTg-18">
          <mxGeometry x="30" y="990" width="100" height="60" as="geometry" />
        </mxCell>
        <mxCell id="-wVJVxd8WleeXn3yaGTg-28" value="发送验证码到手机" style="rounded=1;whiteSpace=wrap;html=1;" vertex="1" parent="-wVJVxd8WleeXn3yaGTg-18">
          <mxGeometry x="20" y="600" width="120" height="60" as="geometry" />
        </mxCell>
        <mxCell id="-wVJVxd8WleeXn3yaGTg-29" value="" style="edgeStyle=orthogonalEdgeStyle;rounded=0;orthogonalLoop=1;jettySize=auto;html=1;" edge="1" parent="-wVJVxd8WleeXn3yaGTg-18" source="-wVJVxd8WleeXn3yaGTg-31" target="-wVJVxd8WleeXn3yaGTg-27">
          <mxGeometry relative="1" as="geometry" />
        </mxCell>
        <mxCell id="-wVJVxd8WleeXn3yaGTg-30" value="是" style="edgeLabel;html=1;align=center;verticalAlign=middle;resizable=0;points=[];" vertex="1" connectable="0" parent="-wVJVxd8WleeXn3yaGTg-29">
          <mxGeometry x="0.0045" relative="1" as="geometry">
            <mxPoint as="offset" />
          </mxGeometry>
        </mxCell>
        <mxCell id="-wVJVxd8WleeXn3yaGTg-31" value="&lt;font style=&quot;font-size: 10px;&quot;&gt;验证码是否可用&lt;/font&gt;" style="rhombus;whiteSpace=wrap;html=1;" vertex="1" parent="-wVJVxd8WleeXn3yaGTg-18">
          <mxGeometry x="30" y="860" width="100" height="60" as="geometry" />
        </mxCell>
        <mxCell id="-wVJVxd8WleeXn3yaGTg-32" value="" style="edgeStyle=orthogonalEdgeStyle;rounded=0;orthogonalLoop=1;jettySize=auto;html=1;" edge="1" parent="-wVJVxd8WleeXn3yaGTg-18" source="-wVJVxd8WleeXn3yaGTg-33" target="-wVJVxd8WleeXn3yaGTg-35">
          <mxGeometry relative="1" as="geometry" />
        </mxCell>
        <mxCell id="-wVJVxd8WleeXn3yaGTg-33" value="保存用户信息，敏感信息脱敏" style="rounded=1;whiteSpace=wrap;html=1;" vertex="1" parent="-wVJVxd8WleeXn3yaGTg-18">
          <mxGeometry x="20" y="1130" width="120" height="60" as="geometry" />
        </mxCell>
        <mxCell id="-wVJVxd8WleeXn3yaGTg-34" value="" style="edgeStyle=orthogonalEdgeStyle;rounded=0;orthogonalLoop=1;jettySize=auto;html=1;" edge="1" parent="-wVJVxd8WleeXn3yaGTg-18" source="-wVJVxd8WleeXn3yaGTg-35" target="-wVJVxd8WleeXn3yaGTg-36">
          <mxGeometry relative="1" as="geometry" />
        </mxCell>
        <mxCell id="-wVJVxd8WleeXn3yaGTg-35" value="发送用户注册mq消息" style="rounded=1;whiteSpace=wrap;html=1;" vertex="1" parent="-wVJVxd8WleeXn3yaGTg-18">
          <mxGeometry x="20" y="1270" width="120" height="60" as="geometry" />
        </mxCell>
        <mxCell id="-wVJVxd8WleeXn3yaGTg-36" value="结束" style="rounded=1;whiteSpace=wrap;html=1;" vertex="1" parent="-wVJVxd8WleeXn3yaGTg-18">
          <mxGeometry x="20" y="1410" width="120" height="60" as="geometry" />
        </mxCell>
        <mxCell id="-wVJVxd8WleeXn3yaGTg-37" value="前端" style="swimlane;html=1;startSize=20;" vertex="1" parent="-wVJVxd8WleeXn3yaGTg-1">
          <mxGeometry x="390" y="20" width="160" height="1600" as="geometry" />
        </mxCell>
        <mxCell id="-wVJVxd8WleeXn3yaGTg-38" value="返回提示信息" style="rounded=1;whiteSpace=wrap;html=1;" vertex="1" parent="-wVJVxd8WleeXn3yaGTg-37">
          <mxGeometry x="40" y="205" width="120" height="60" as="geometry" />
        </mxCell>
        <mxCell id="-wVJVxd8WleeXn3yaGTg-39" value="返回注册流程" style="rounded=1;whiteSpace=wrap;html=1;" vertex="1" parent="-wVJVxd8WleeXn3yaGTg-37">
          <mxGeometry x="40" y="375" width="120" height="60" as="geometry" />
        </mxCell>
        <mxCell id="-wVJVxd8WleeXn3yaGTg-40" value="返回提示信息" style="rounded=1;whiteSpace=wrap;html=1;" vertex="1" parent="-wVJVxd8WleeXn3yaGTg-37">
          <mxGeometry x="40" y="515" width="120" height="60" as="geometry" />
        </mxCell>
        <mxCell id="-wVJVxd8WleeXn3yaGTg-41" value="提示重发验证码" style="rounded=1;whiteSpace=wrap;html=1;" vertex="1" parent="-wVJVxd8WleeXn3yaGTg-37">
          <mxGeometry x="40" y="860" width="120" height="60" as="geometry" />
        </mxCell>
        <mxCell id="-wVJVxd8WleeXn3yaGTg-42" value="提示密码不合要求" style="rounded=1;whiteSpace=wrap;html=1;" vertex="1" parent="-wVJVxd8WleeXn3yaGTg-37">
          <mxGeometry x="40" y="990" width="120" height="60" as="geometry" />
        </mxCell>
        <mxCell id="-wVJVxd8WleeXn3yaGTg-43" value="" style="edgeStyle=orthogonalEdgeStyle;rounded=0;orthogonalLoop=1;jettySize=auto;html=1;exitX=1;exitY=0.5;exitDx=0;exitDy=0;" edge="1" parent="-wVJVxd8WleeXn3yaGTg-1" source="-wVJVxd8WleeXn3yaGTg-59" target="-wVJVxd8WleeXn3yaGTg-21">
          <mxGeometry relative="1" as="geometry">
            <mxPoint x="177.5" y="285" as="sourcePoint" />
          </mxGeometry>
        </mxCell>
        <mxCell id="-wVJVxd8WleeXn3yaGTg-44" value="" style="edgeStyle=orthogonalEdgeStyle;rounded=0;orthogonalLoop=1;jettySize=auto;html=1;" edge="1" parent="-wVJVxd8WleeXn3yaGTg-1" source="-wVJVxd8WleeXn3yaGTg-21" target="-wVJVxd8WleeXn3yaGTg-38">
          <mxGeometry relative="1" as="geometry" />
        </mxCell>
        <mxCell id="-wVJVxd8WleeXn3yaGTg-45" value="否" style="edgeLabel;html=1;align=center;verticalAlign=middle;resizable=0;points=[];" vertex="1" connectable="0" parent="-wVJVxd8WleeXn3yaGTg-44">
          <mxGeometry x="-0.0245" relative="1" as="geometry">
            <mxPoint as="offset" />
          </mxGeometry>
        </mxCell>
        <mxCell id="-wVJVxd8WleeXn3yaGTg-46" value="" style="edgeStyle=orthogonalEdgeStyle;rounded=0;orthogonalLoop=1;jettySize=auto;html=1;" edge="1" parent="-wVJVxd8WleeXn3yaGTg-1" source="-wVJVxd8WleeXn3yaGTg-24" target="-wVJVxd8WleeXn3yaGTg-39">
          <mxGeometry relative="1" as="geometry" />
        </mxCell>
        <mxCell id="-wVJVxd8WleeXn3yaGTg-47" value="否" style="edgeLabel;html=1;align=center;verticalAlign=middle;resizable=0;points=[];" vertex="1" connectable="0" parent="-wVJVxd8WleeXn3yaGTg-46">
          <mxGeometry x="-0.0245" relative="1" as="geometry">
            <mxPoint as="offset" />
          </mxGeometry>
        </mxCell>
        <mxCell id="-wVJVxd8WleeXn3yaGTg-48" value="" style="edgeStyle=orthogonalEdgeStyle;rounded=0;orthogonalLoop=1;jettySize=auto;html=1;" edge="1" parent="-wVJVxd8WleeXn3yaGTg-1" source="-wVJVxd8WleeXn3yaGTg-25" target="-wVJVxd8WleeXn3yaGTg-40">
          <mxGeometry relative="1" as="geometry" />
        </mxCell>
        <mxCell id="-wVJVxd8WleeXn3yaGTg-49" value="否" style="edgeLabel;html=1;align=center;verticalAlign=middle;resizable=0;points=[];" vertex="1" connectable="0" parent="-wVJVxd8WleeXn3yaGTg-48">
          <mxGeometry x="-0.0041" y="-1" relative="1" as="geometry">
            <mxPoint as="offset" />
          </mxGeometry>
        </mxCell>
        <mxCell id="-wVJVxd8WleeXn3yaGTg-50" value="" style="edgeStyle=orthogonalEdgeStyle;rounded=0;orthogonalLoop=1;jettySize=auto;html=1;" edge="1" parent="-wVJVxd8WleeXn3yaGTg-1" source="-wVJVxd8WleeXn3yaGTg-25" target="-wVJVxd8WleeXn3yaGTg-11">
          <mxGeometry relative="1" as="geometry" />
        </mxCell>
        <mxCell id="-wVJVxd8WleeXn3yaGTg-51" value="" style="edgeStyle=orthogonalEdgeStyle;rounded=0;orthogonalLoop=1;jettySize=auto;html=1;" edge="1" parent="-wVJVxd8WleeXn3yaGTg-1" source="-wVJVxd8WleeXn3yaGTg-11" target="-wVJVxd8WleeXn3yaGTg-28">
          <mxGeometry relative="1" as="geometry" />
        </mxCell>
        <mxCell id="-wVJVxd8WleeXn3yaGTg-52" value="" style="endArrow=classic;html=1;rounded=0;exitX=0.5;exitY=1;exitDx=0;exitDy=0;entryX=1;entryY=0.5;entryDx=0;entryDy=0;" edge="1" parent="-wVJVxd8WleeXn3yaGTg-1" source="-wVJVxd8WleeXn3yaGTg-28" target="-wVJVxd8WleeXn3yaGTg-15">
          <mxGeometry width="50" height="50" relative="1" as="geometry">
            <mxPoint x="250" y="700" as="sourcePoint" />
            <mxPoint x="300" y="650" as="targetPoint" />
            <Array as="points">
              <mxPoint x="310" y="770" />
            </Array>
          </mxGeometry>
        </mxCell>
        <mxCell id="-wVJVxd8WleeXn3yaGTg-53" value="" style="edgeStyle=orthogonalEdgeStyle;rounded=0;orthogonalLoop=1;jettySize=auto;html=1;" edge="1" parent="-wVJVxd8WleeXn3yaGTg-1" source="-wVJVxd8WleeXn3yaGTg-16" target="-wVJVxd8WleeXn3yaGTg-31">
          <mxGeometry relative="1" as="geometry" />
        </mxCell>
        <mxCell id="-wVJVxd8WleeXn3yaGTg-54" value="" style="edgeStyle=orthogonalEdgeStyle;rounded=0;orthogonalLoop=1;jettySize=auto;html=1;" edge="1" parent="-wVJVxd8WleeXn3yaGTg-1" source="-wVJVxd8WleeXn3yaGTg-31" target="-wVJVxd8WleeXn3yaGTg-41">
          <mxGeometry relative="1" as="geometry" />
        </mxCell>
        <mxCell id="-wVJVxd8WleeXn3yaGTg-55" value="否" style="edgeLabel;html=1;align=center;verticalAlign=middle;resizable=0;points=[];" vertex="1" connectable="0" parent="-wVJVxd8WleeXn3yaGTg-54">
          <mxGeometry x="-0.0226" y="1" relative="1" as="geometry">
            <mxPoint x="1" as="offset" />
          </mxGeometry>
        </mxCell>
        <mxCell id="-wVJVxd8WleeXn3yaGTg-56" value="" style="edgeStyle=orthogonalEdgeStyle;rounded=0;orthogonalLoop=1;jettySize=auto;html=1;" edge="1" parent="-wVJVxd8WleeXn3yaGTg-1" source="-wVJVxd8WleeXn3yaGTg-27" target="-wVJVxd8WleeXn3yaGTg-42">
          <mxGeometry relative="1" as="geometry" />
        </mxCell>
        <mxCell id="-wVJVxd8WleeXn3yaGTg-57" value="否" style="edgeLabel;html=1;align=center;verticalAlign=middle;resizable=0;points=[];" vertex="1" connectable="0" parent="-wVJVxd8WleeXn3yaGTg-56">
          <mxGeometry x="0.0376" relative="1" as="geometry">
            <mxPoint x="-1" as="offset" />
          </mxGeometry>
        </mxCell>
        <mxCell id="-wVJVxd8WleeXn3yaGTg-58" value="" style="edgeStyle=orthogonalEdgeStyle;rounded=0;orthogonalLoop=1;jettySize=auto;html=1;" edge="1" parent="-wVJVxd8WleeXn3yaGTg-1" source="-wVJVxd8WleeXn3yaGTg-36" target="-wVJVxd8WleeXn3yaGTg-17">
          <mxGeometry relative="1" as="geometry" />
        </mxCell>
      </root>
    </mxGraphModel>
  </diagram>
</mxfile>
